<?xml version="1.0" encoding="utf-8"?>
<!-- Generator: Adobe Illustrator 15.0.2, SVG Export Plug-In . SVG Version: 6.00 Build 0)  -->
<!DOCTYPE svg PUBLIC "-//W3C//DTD SVG 1.1//EN" "http://www.w3.org/Graphics/SVG/1.1/DTD/svg11.dtd">
<svg version="1.1" xmlns="http://www.w3.org/2000/svg" xmlns:xlink="http://www.w3.org/1999/xlink" x="0px" y="0px" width="792px"
	 height="612px" viewBox="0 0 792 612" enable-background="new 0 0 792 612" xml:space="preserve">
<g id="LogoMark">
</g>
<g id="Kitware">
	<path fill="#00539B" d="M480.387,296.189c0-34.624-21.057-64.409-51.029-77.258l1.021,13.425l-13.072-0.351
		c27.018,8.839,46.604,34.251,46.604,64.184c0,37.248-30.301,67.551-67.55,67.551s-67.551-30.303-67.551-67.551
		c0-37.25,30.301-67.55,67.551-67.55c4.775,0,9.431,0.511,13.929,1.457l-24.742-16.378c0,0-1.547-0.552-4.549-0.05
		c-39.008,7.246-68.665,41.447-68.665,82.521c0,46.332,37.693,84.026,84.026,84.026
		C442.692,380.216,480.387,342.521,480.387,296.189"/>
	<path fill="#00539B" d="M370.684,348.285l-4.957-6.58c-5.388-7.145-10.599-15.688-8.441-24.885
		c2.836-12.066,15.642-18.465,41.146-31.209c3.807-1.902,7.909-3.952,12.305-6.185c7.058-3.584,10.669-7.404,10.727-11.349
		c0.16-10.957-21.291-27.63-36.578-35.974l-7.226-3.945l7.874-14.458l7.233,3.933c7.603,4.138,45.522,26.033,45.17,50.673
		c-0.105,7.256-3.615,17.624-19.741,25.811c-4.429,2.252-8.563,4.318-12.399,6.236c-16.852,8.416-31.403,15.688-32.47,20.238
		c-0.255,1.088,0.124,3.994,5.559,11.205l4.956,6.576L370.684,348.285z"/>
	<path fill="#00A94F" d="M356.812,302.546c-4.939-7.466-9.622-16.313-6.903-25.358c3.565-11.867,16.732-17.473,42.963-28.636
		c3.917-1.666,8.138-3.462,12.669-5.422c7.262-3.147,11.098-6.738,11.395-10.677c0.833-10.922-19.563-28.877-34.313-38.139
		l8.749-13.956c7.339,4.592,43.848,28.758,41.993,53.331c-0.543,7.237-4.68,17.37-21.275,24.56
		c-4.563,1.972-8.816,3.788-12.766,5.467c-17.331,7.375-32.294,13.74-33.638,18.217c-0.323,1.067-0.119,3.992,4.863,11.516
		L356.812,302.546z"/>
	<path fill="#00A94F" d="M408.91,413.39c-7.605-4.139-45.523-26.033-45.17-50.672c0.103-7.257,3.611-17.622,19.742-25.812
		c4.428-2.249,8.561-4.318,12.399-6.232c16.848-8.418,31.401-15.691,32.467-20.241c0.257-1.087-0.123-3.993-5.556-11.198
		l13.157-9.918c5.387,7.144,10.602,15.691,8.439,24.888c-2.836,12.064-15.639,18.462-41.143,31.208
		c-3.807,1.903-7.913,3.953-12.309,6.185c-7.057,3.583-10.666,7.405-10.722,11.353c-0.164,10.954,21.29,27.629,36.577,35.973
		L408.91,413.39z"/>
</g>
</svg>
